<svg width="301" height="301" viewBox="0 0 301 301" fill="none"
    xmlns="http://www.w3.org/2000/svg">
    <path fill-rule="evenodd" clip-rule="evenodd" d="M75.2307 20.9223C144.975 -19.3448 233.616 2.76359 276.556 69.939L203.944 98.9624C180.578 74.8774 143.023 68.7438 112.639 86.2858C82.2553 103.828 68.7892 139.419 77.9647 171.697L16.9794 219.71C-19.6704 148.948 5.51015 61.1755 75.2307 20.9223ZM24.2885 232.31C67.371 299.019 155.693 320.878 225.231 280.73C294.793 240.568 320.017 153.103 283.731 82.425L222.313 130.779C231.489 163.057 218.023 198.648 187.639 216.19C157.255 233.732 119.7 227.598 96.334 203.513L24.2885 232.31Z" fill="#0261F5"/>
</svg>
